<?xml version="1.0" standalone="no"?><svg xmlns="http://www.w3.org/2000/svg" viewBox="0 0 1440 320"><path fill="#F6F6F6" fill-opacity="1" d="M0,192L34.3,213.3C68.6,235,137,277,206,288C274.3,299,343,277,411,224C480,171,549,85,617,90.7C685.7,96,754,192,823,213.3C891.4,235,960,181,1029,170.7C1097.1,160,1166,192,1234,202.7C1302.9,213,1371,203,1406,197.3L1440,192L1440,0L1405.7,0C1371.4,0,1303,0,1234,0C1165.7,0,1097,0,1029,0C960,0,891,0,823,0C754.3,0,686,0,617,0C548.6,0,480,0,411,0C342.9,0,274,0,206,0C137.1,0,69,0,34,0L0,0Z"></path></svg>